<svg width="520" height="300" viewBox="0 0 520 300" fill="none" xmlns="http://www.w3.org/2000/svg" role="img" aria-label="Create an org chart">
  <rect width="520" height="300" rx="12" fill="#F6F9FC"/>
  <rect x="1" y="1" width="518" height="298" rx="11" stroke="#CBD6E2" stroke-dasharray="8 8"/>
  <text x="260" y="42" text-anchor="middle" font-family="Arial, sans-serif" font-size="18" font-weight="700" fill="#213343">Create an org chart</text>
  <text x="260" y="66" text-anchor="middle" font-family="Arial, sans-serif" font-size="12" fill="#516F90">Click to open the editor and add reporting lines</text>

  <g opacity="0.96">
    <rect x="163" y="92" width="194" height="58" rx="8" fill="#FFFFFF" stroke="#CBD6E2"/>
    <circle cx="189" cy="121" r="13" fill="#EAF0F6"/>
    <rect x="211" y="108" width="94" height="10" rx="5" fill="#CBD6E2"/>
    <rect x="211" y="126" width="68" height="8" rx="4" fill="#DDE6ED"/>
  </g>

  <path d="M260 150V178" stroke="#99ACC2" stroke-width="2" stroke-linecap="round"/>
  <path d="M260 178H142V204" stroke="#99ACC2" stroke-width="2" stroke-linecap="round" stroke-linejoin="round"/>
  <path d="M260 178H378V204" stroke="#99ACC2" stroke-width="2" stroke-linecap="round" stroke-linejoin="round"/>

  <g opacity="0.88">
    <rect x="62" y="204" width="160" height="52" rx="8" fill="#FFFFFF" stroke="#CBD6E2"/>
    <circle cx="85" cy="230" r="11" fill="#EAF0F6"/>
    <rect x="105" y="218" width="76" height="9" rx="4.5" fill="#CBD6E2"/>
    <rect x="105" y="235" width="52" height="7" rx="3.5" fill="#DDE6ED"/>
  </g>

  <g opacity="0.88">
    <rect x="298" y="204" width="160" height="52" rx="8" fill="#FFFFFF" stroke="#CBD6E2"/>
    <circle cx="321" cy="230" r="11" fill="#EAF0F6"/>
    <rect x="341" y="218" width="76" height="9" rx="4.5" fill="#CBD6E2"/>
    <rect x="341" y="235" width="52" height="7" rx="3.5" fill="#DDE6ED"/>
  </g>

  <circle cx="260" cy="178" r="5" fill="#FF7A59"/>
</svg>
